<svg width="147" height="25" xmlns="http://www.w3.org/2000/svg" xmlns:xlink="http://www.w3.org/1999/xlink" xmlns:svgjs="http://svgjs.com/svgjs" viewBox="0 0.38 147 24.24" stroke="#3BD071" fill="#ffffff"><svg xmlns="http://www.w3.org/2000/svg" width="147" height="25" viewBox="1.001 1.922 145.998 24.075"><path paint-order="stroke fill markers" d="M14 2.016l-2.925 9.352-10.074-.193 8.267 5.588-3.302 9.234 8.034-5.9 8.034 5.9-3.302-9.234L27 11.175l-10.074.193L14 2.016zm30-.032l-2.925 9.365-10.074-.193 8.267 5.595-3.302 9.246L44 20.09l8.034 5.907-3.302-9.246L57 11.156l-10.074.193L44 1.984zm30-.031l-2.925 9.376-10.074-.192 8.267 5.602-3.302 9.258L74 20.082l8.034 5.915-3.302-9.258L87 11.137l-10.074.192L74 1.953zm30-.031l-2.925 9.388-10.074-.193 8.267 5.61-3.302 9.27L104 20.075l8.034 5.922-3.302-9.27 8.267-5.61-10.074.193L104 1.922zm30 0l-2.925 9.388-10.074-.193 8.267 5.61-3.302 9.27L134 20.075l8.034 5.922-3.302-9.27 8.267-5.61-10.074.193L134 1.922z"/></svg></svg>