<svg width="147" height="25" xmlns="http://www.w3.org/2000/svg" xmlns:xlink="http://www.w3.org/1999/xlink" xmlns:svgjs="http://svgjs.com/svgjs" viewBox="454 4846 147 25"><svg width="117" height="25" xmlns="http://www.w3.org/2000/svg" xmlns:xlink="http://www.w3.org/1999/xlink" xmlns:svgjs="http://svgjs.com/svgjs" viewBox="0 0.359 117 24.283" stroke="#b3b3b3" fill="#b3b3b3" x="454" y="4846"><svg xmlns="http://www.w3.org/2000/svg" xmlns:xlink="http://www.w3.org/1999/xlink" width="117" height="25" viewBox="1.001 1.922 115.998 24.075"><path paint-order="stroke fill markers" fill-rule="evenodd" d="M14 2.016l-2.925 9.352-10.074-.192 8.267 5.587-3.302 9.234 8.034-5.9 8.034 5.9-3.302-9.234L27 11.176l-10.074.192L14 2.016zm30-.032l-2.925 9.365-10.074-.193 8.267 5.595-3.302 9.246L44 20.09l8.034 5.907-3.302-9.246L57 11.156l-10.074.193L44 1.984zm30-.03l-2.925 9.375-10.074-.192 8.267 5.602-3.302 9.258L74 20.083l8.034 5.914-3.302-9.258L87 11.137l-10.074.192L74 1.953zm30-.032l-2.925 9.388-10.074-.192 8.267 5.61-3.302 9.269L104 20.075l8.034 5.922-3.302-9.27 8.267-5.61-10.074.193L104 1.922z"/></svg></svg><svg width="27" height="25" xmlns="http://www.w3.org/2000/svg" xmlns:xlink="http://www.w3.org/1999/xlink" xmlns:svgjs="http://svgjs.com/svgjs" viewBox="0.001 0 26.997 25" fill="#b3b3b3" x="574" y="4846"><svg xmlns="http://www.w3.org/2000/svg" width="27" height="25" viewBox="1.001 1.922 25.998 24.075"><path paint-order="stroke fill markers" fill-rule="evenodd" d="M14 1.922l-2.925 9.388-10.074-.192 8.267 5.61-3.302 9.269L14 20.075l8.034 5.922-3.302-9.27L27 11.117l-10.074.193L14 1.922z"/></svg></svg></svg>